<?xml version="1.0" encoding="utf-8"?>
<!-- Generator: Adobe Illustrator 27.8.1, SVG Export Plug-In . SVG Version: 6.00 Build 0)  -->
<svg version="1.1" id="Livello_1" xmlns="http://www.w3.org/2000/svg" xmlns:xlink="http://www.w3.org/1999/xlink" x="0px" y="0px"
	 viewBox="0 0 244.8 273.1" style="enable-background:new 0 0 244.8 273.1;" xml:space="preserve">
<style type="text/css">
	.st0{fill:url(#SVGID_1_);}
	.st1{fill:url(#SVGID_00000116925836399513763310000010967217401817259188_);}
	.st2{fill:url(#SVGID_00000014624680946018205690000018139020519204022696_);}
	.st3{fill:url(#SVGID_00000005264908953311342340000008174313452721408384_);}
	.st4{fill:url(#SVGID_00000129207604423454496870000000720823989828387212_);}
	.st5{fill:url(#SVGID_00000165947405535117913700000010635062706308728459_);}
</style>
<g>
	<linearGradient id="SVGID_1_" gradientUnits="userSpaceOnUse" x1="207.126" y1="258.7377" x2="244.3468" y2="194.2693">
		<stop  offset="0" style="stop-color:#A52348"/>
		<stop  offset="2.161416e-02" style="stop-color:#A32147"/>
		<stop  offset="0.1998" style="stop-color:#94173C"/>
		<stop  offset="0.3412" style="stop-color:#891135"/>
		<stop  offset="0.4274" style="stop-color:#840E32"/>
		<stop  offset="0.4851" style="stop-color:#9D1033"/>
		<stop  offset="0.5615" style="stop-color:#BB0F31"/>
		<stop  offset="0.6328" style="stop-color:#D10B2C"/>
		<stop  offset="0.6964" style="stop-color:#DF0729"/>
		<stop  offset="0.7458" style="stop-color:#E30527"/>
	</linearGradient>
	<path class="st0" d="M205.4,245.2c3.5-4.3,7-9.2,10.3-14.8c10.4-17.9,13.4-34.6,14.4-44.2c0-0.3,0-0.3,0-0.3h-0.2
		c1.5,3.2,2.7,6.5,3.7,10c2.2,7.7,2.4,13.9,2.5,18.4c0.1,3.6,0.2,10.4-1.4,19.1c-1.8,10-4.7,26.1-14.8,29.5
		c-1.7,0.6-3.3,0.7-4.2,0.7c-0.9-0.5-2.3-1.3-3.5-2.7c-1-1.2-1.6-2.2-2.1-3.1c-0.7-1.3-0.7-1.6-1.9-4.7c-0.8-2.1-0.9-2.2-1.5-3.5
		C206.2,247.9,205.7,246.4,205.4,245.2z"/>
	
		<linearGradient id="SVGID_00000134248282209172066620000002902897054572104366_" gradientUnits="userSpaceOnUse" x1="162.8351" y1="46.4672" x2="162.8317" y2="46.4579">
		<stop  offset="5.586592e-02" style="stop-color:#831D17"/>
		<stop  offset="7.238929e-02" style="stop-color:#901D1A"/>
		<stop  offset="0.1062" style="stop-color:#A91C1F"/>
		<stop  offset="0.1452" style="stop-color:#BE1822"/>
		<stop  offset="0.1906" style="stop-color:#CE1325"/>
		<stop  offset="0.2468" style="stop-color:#DA0C26"/>
		<stop  offset="0.3257" style="stop-color:#E10627"/>
		<stop  offset="0.5447" style="stop-color:#E30527"/>
		<stop  offset="0.6449" style="stop-color:#E6322D"/>
		<stop  offset="0.7846" style="stop-color:#E95034"/>
		<stop  offset="0.9077" style="stop-color:#EC6139"/>
		<stop  offset="1" style="stop-color:#EC663B"/>
	</linearGradient>
	<line style="fill:url(#SVGID_00000134248282209172066620000002902897054572104366_);" x1="162.8" y1="46.5" x2="162.8" y2="46.5"/>
	
		<linearGradient id="SVGID_00000094582585166035063000000014134772879743947409_" gradientUnits="userSpaceOnUse" x1="205.1494" y1="243.4307" x2="205.1529" y2="243.4369">
		<stop  offset="0.1899" style="stop-color:#4D2640"/>
		<stop  offset="0.205" style="stop-color:#52243F"/>
		<stop  offset="0.2699" style="stop-color:#671F3B"/>
		<stop  offset="0.3358" style="stop-color:#741937"/>
		<stop  offset="0.402" style="stop-color:#7C1535"/>
		<stop  offset="0.4684" style="stop-color:#811133"/>
		<stop  offset="0.5352" style="stop-color:#830F32"/>
		<stop  offset="0.6034" style="stop-color:#840E32"/>
		<stop  offset="0.9358" style="stop-color:#E30527"/>
	</linearGradient>
	
		<line style="fill:url(#SVGID_00000094582585166035063000000014134772879743947409_);" x1="205.2" y1="243.4" x2="205.2" y2="243.4"/>
	
		<linearGradient id="SVGID_00000037668406753889704220000014422767155979585667_" gradientUnits="userSpaceOnUse" x1="130.0666" y1="12.0368" x2="32.7632" y2="180.5712">
		<stop  offset="0" style="stop-color:#A52348"/>
		<stop  offset="2.161416e-02" style="stop-color:#A32147"/>
		<stop  offset="0.1998" style="stop-color:#94173C"/>
		<stop  offset="0.3412" style="stop-color:#891135"/>
		<stop  offset="0.4274" style="stop-color:#840E32"/>
		<stop  offset="0.4851" style="stop-color:#9D1033"/>
		<stop  offset="0.5615" style="stop-color:#BB0F31"/>
		<stop  offset="0.6328" style="stop-color:#D10B2C"/>
		<stop  offset="0.6964" style="stop-color:#DF0729"/>
		<stop  offset="0.7458" style="stop-color:#E30527"/>
	</linearGradient>
	<path style="fill:url(#SVGID_00000037668406753889704220000014422767155979585667_);" d="M124.6,9.1c0,0-0.1,0-0.1,0
		c-2.1,0-24.8,0.1-27.3,0.1c0,0-0.1,0-0.1,0c-0.5,0.1-1.2,0.3-1.5,1c-0.1,0.3-0.2,0.5-0.3,0.7c-1.2,3.6-57.1,165.9-57.1,165.9
		c0,0,0,0,0,0c1.2,1.5,2.8,3.3,4.6,5.3c1.1,1.2,2.7,2.9,4.9,5c2.6,2.5,4.7,4.2,7.7,6.6c0.1,0.1,0.2,0.1,0.3,0.2
		c2.1,1.7,5.2,0.8,6.1-1.7l0.1-0.2c0,0,3.2-9.4,3.2-9.4c0-0.1,5.8-16.9,5.9-17.1c13.2-38.5,26.5-77,39.7-115.5c0,0,6.9-20,12.7-37
		c0,0,0.5-1.3,0.5-1.3c0,0,0.4-1,0.4-1c0.1-0.2,0.1-0.4,0.2-0.6c0,0,0.1-0.3,0.2-0.5c0-0.1,0.1-0.1,0.2-0.2c0.1-0.1,0.2,0,0.2,0
		c0,0-0.1,0-0.1,0C124.8,9.1,124.7,9.1,124.6,9.1z"/>
	
		<linearGradient id="SVGID_00000128457899885286251890000005878696940032181947_" gradientUnits="userSpaceOnUse" x1="110.4789" y1="136.5534" x2="215.6935" y2="136.5534">
		<stop  offset="0.1369" style="stop-color:#840E32"/>
		<stop  offset="0.221" style="stop-color:#9D1033"/>
		<stop  offset="0.3322" style="stop-color:#BB0F31"/>
		<stop  offset="0.436" style="stop-color:#D10B2C"/>
		<stop  offset="0.5286" style="stop-color:#DF0729"/>
		<stop  offset="0.6006" style="stop-color:#E30527"/>
		<stop  offset="0.7983" style="stop-color:#B81F40"/>
		<stop  offset="0.9078" style="stop-color:#A52348"/>
	</linearGradient>
	<path style="fill:url(#SVGID_00000128457899885286251890000005878696940032181947_);" d="M183.6,259.9c0.5,0.7,1.4,1.8,2.7,2.6
		c1.3,0.7,2.5,1,4.7,1.3c2.8,0.3,5,0.3,6.6,0.3c4.4-0.1,6.2-0.2,9.9-0.3c2.3,0,4.1,0,5.2,0v0c1,0,1.9,0,2.9,0.1
		c-1.2-0.7-3-1.8-4.4-3.8c-0.8-1.1-1.2-2-1.5-2.7c-2.6-6.2-3.4-8.4-3.4-8.4c-1.3-4.1-2.5-7.8-3.6-11.2C177,161.4,151,85.4,125.1,9.3
		c-0.1-0.3-0.5-0.3-0.5,0c-2.4,6.6-4.8,13.9-7.2,20.3c-2.5,6.9-4.2,13.8-6.9,20.4c0,0,0,0.1,0,0.1c36.6,106.8,63.3,184.7,65.6,191.5
		c0.6,1.8,2.2,6.2,4.6,11.9C181.9,256.3,182.9,258.5,183.6,259.9z"/>
	
		<linearGradient id="SVGID_00000043432838613088895740000017903450472972969641_" gradientUnits="userSpaceOnUse" x1="47.3984" y1="201.3317" x2="2.0754" y2="122.83">
		<stop  offset="0" style="stop-color:#A52348"/>
		<stop  offset="2.161416e-02" style="stop-color:#A32147"/>
		<stop  offset="0.1998" style="stop-color:#94173C"/>
		<stop  offset="0.3412" style="stop-color:#891135"/>
		<stop  offset="0.4274" style="stop-color:#840E32"/>
		<stop  offset="0.4851" style="stop-color:#9D1033"/>
		<stop  offset="0.5615" style="stop-color:#BB0F31"/>
		<stop  offset="0.6328" style="stop-color:#D10B2C"/>
		<stop  offset="0.6964" style="stop-color:#DF0729"/>
		<stop  offset="0.7458" style="stop-color:#E30527"/>
	</linearGradient>
	<path style="fill:url(#SVGID_00000043432838613088895740000017903450472972969641_);" d="M14.9,115.4c0.1,0,0,0.2,0,0.3
		c-0.1,1.1,0.8,14.2,14.4,44.2c2.5,5.4,5.1,10.8,9.1,16.5c2.5,3.4,4.8,6,5.5,6.7c2.1,2.3,3.8,3.9,6.6,6.4c1.6,1.5,2,1.8,2.3,2
		c2.7,1.8,5.5,2.4,7.5,2.5c-0.1,0.1-0.4,0.2-0.6,0.4c-1.5,0.7-2.8,0.9-3.6,1c-12.5,1.2-22.9-1-22.9-1c-0.5-0.1-0.9-0.2-1.2-0.3
		c-0.2-0.1-0.5-0.2-0.9-0.3c-11.3-4.6-15.3-18.4-18.7-28c-1.3-3.8-3.7-11.8-3.8-22c0-3.6,0-10.4,2.5-18.4
		C12.3,121.6,14.6,115.3,14.9,115.4z"/>
</g>
</svg>
